<svg width="800" height="500" viewBox="0 0 800 500" fill="none" xmlns="http://www.w3.org/2000/svg">
  <defs>
    <linearGradient id="b1" x1="110" y1="40" x2="670" y2="420" gradientUnits="userSpaceOnUse">
      <stop stop-color="#F7F5F3"/>
      <stop offset="0.48" stop-color="#E6F3F8"/>
      <stop offset="1" stop-color="#DDF0E9"/>
    </linearGradient>
  </defs>
  <rect width="800" height="500" rx="28" fill="url(#b1)"/>
  <circle cx="400" cy="260" r="118" fill="#DDEFF6" stroke="#9BC3D5" stroke-width="6"/>
  <circle cx="400" cy="260" r="76" fill="#EEF7FA" stroke="#C4D9E5" stroke-width="4"/>
  <path d="M210 340C300 280 358 260 400 260C440 260 509 272 590 338" stroke="#83A9B8" stroke-width="12" stroke-linecap="round"/>
  <path d="M180 192C214 160 268 128 318 120C298 176 286 214 260 260C235 245 206 219 180 192Z" fill="#9DC0CE" opacity="0.8"/>
  <path d="M620 194C582 166 538 136 492 128C505 178 518 218 548 260C576 248 603 221 620 194Z" fill="#C3E0D5" opacity="0.8"/>
</svg>
